PathFileType	4	(X/Y/Z)	 2.2Hz3min.trc
DataRate	CameraRate	NumFrames	NumMarkers	Units	OrigDataRate	OrigDataStartFrame	OrigNumFrames
200	200	10	35	m	200	1	1000
Frame#	Time	C7			LSH			RSH			MAN			RASI			LASI			HIPR			HIPL			RPSI			LPSI			COX			RTHI1			RTHI2			RTHI3			RTHI4			RSHA1			RSHA2			RSHA3			RSHA4			RHEEL			RMET5			RMET1			RTOE			LTHI1			LTHI2			LTHI3			LTHI4			LSHA1			LSHA2			LSHA3			LSHA4			LHEEL			LMET5			LMET1			LTOE			
		X1	Y1	Z1	X2	Y2	Z2	X3	Y3	Z3	X4	Y4	Z4	X5	Y5	Z5	X6	Y6	Z6	X7	Y7	Z7	X8	Y8	Z8	X9	Y9	Z9	X10	Y10	Z10	X11	Y11	Z11	X12	Y12	Z12	X13	Y13	Z13	X14	Y14	Z14	X15	Y15	Z15	X16	Y16	Z16	X17	Y17	Z17	X18	Y18	Z18	X19	Y19	Z19	X20	Y20	Z20	X21	Y21	Z21	X22	Y22	Z22	X23	Y23	Z23	X24	Y24	Z24	X25	Y25	Z25	X26	Y26	Z26	X27	Y27	Z27	X28	Y28	Z28	X29	Y29	Z29	X30	Y30	Z30	X31	Y31	Z31	X32	Y32	Z32	X33	Y33	Z33	X34	Y34	Z34	X35	Y35	Z35	
1	0.0050	-0.276647	1.391580	-0.526127	-0.220535	1.354281	-0.699071	-0.209222	1.355422	-0.351703	-0.157150	1.343009	-0.530717	-0.124226	0.937194	-0.442435	-0.129962	0.945582	-0.623673	-0.177868	0.999150	-0.398651	-0.174986	0.999960	-0.658831	-0.269688	0.986345	-0.466782	-0.270878	0.985427	-0.580303	-0.277459	0.994633	-0.524204	-0.227153	0.735573	-0.365751	-0.208212	0.679614	-0.356061	-0.146786	0.697286	-0.344555	-0.158066	0.757592	-0.352360	-0.259479	0.331232	-0.325462	-0.276552	0.294206	-0.326809	-0.226119	0.269924	-0.313653	-0.204411	0.306549	-0.314084	-0.346727	0.133034	-0.357184	-0.221444	0.032921	-0.297699	-0.188818	0.037306	-0.371581	-0.168220	0.029605	-0.361676	-0.200781	0.742676	-0.710937	-0.184351	0.683619	-0.716121	-0.120998	0.693886	-0.704460	-0.129977	0.752620	-0.698399	-0.265824	0.310765	-0.738607	-0.278980	0.268286	-0.736656	-0.228250	0.250983	-0.728774	-0.208632	0.286641	-0.730090	-0.361084	0.144595	-0.690828	-0.236721	0.035137	-0.740128	-0.212239	0.039490	-0.668142	-0.188477	0.028784	-0.675450	
2	0.0100	-0.276791	1.386755	-0.525932	-0.220347	1.349358	-0.698879	-0.209218	1.350498	-0.351289	-0.157456	1.338035	-0.530439	-0.124911	0.932586	-0.442168	-0.130589	0.940982	-0.623389	-0.178785	0.994258	-0.398420	-0.175655	0.995244	-0.658542	-0.270505	0.981385	-0.466594	-0.271672	0.980630	-0.580167	-0.278100	0.989736	-0.524099	-0.226971	0.730389	-0.365845	-0.207597	0.674562	-0.356087	-0.146302	0.692688	-0.344856	-0.158013	0.752867	-0.352712	-0.259204	0.328247	-0.325397	-0.276748	0.291560	-0.326636	-0.226636	0.266532	-0.313814	-0.204491	0.302768	-0.314300	-0.348989	0.130014	-0.356705	-0.221586	0.032224	-0.297322	-0.188735	0.037278	-0.370883	-0.168031	0.029531	-0.361399	-0.200445	0.737697	-0.710862	-0.183714	0.678697	-0.716032	-0.120478	0.689253	-0.704047	-0.129778	0.747961	-0.697950	-0.265331	0.307508	-0.738563	-0.279046	0.265255	-0.736513	-0.228605	0.247260	-0.728329	-0.208525	0.282665	-0.729679	-0.363194	0.141053	-0.690687	-0.236584	0.034186	-0.740884	-0.210835	0.039899	-0.669372	-0.186685	0.028668	-0.675665	
3	0.0150	-0.276956	1.381710	-0.525735	-0.220133	1.344185	-0.698709	-0.209117	1.345362	-0.350858	-0.157936	1.332766	-0.530163	-0.125619	0.927779	-0.441876	-0.131185	0.936218	-0.623113	-0.179774	0.989146	-0.398147	-0.176342	0.990292	-0.658276	-0.271355	0.976188	-0.466409	-0.272473	0.975590	-0.580076	-0.278628	0.984571	-0.524021	-0.226848	0.724892	-0.366022	-0.207010	0.669204	-0.356227	-0.145896	0.687874	-0.345126	-0.158068	0.747930	-0.353037	-0.258757	0.325149	-0.325370	-0.276803	0.288728	-0.326581	-0.227096	0.263083	-0.313794	-0.204439	0.298948	-0.314464	-0.351234	0.127058	-0.356058	-0.221926	0.031598	-0.296753	-0.189082	0.037074	-0.370786	-0.168209	0.029462	-0.361477	-0.200122	0.732463	-0.710762	-0.183113	0.673521	-0.715874	-0.119966	0.684378	-0.703711	-0.129559	0.743046	-0.697647	-0.265069	0.304162	-0.738494	-0.279315	0.262087	-0.736347	-0.229158	0.243449	-0.727913	-0.208627	0.278605	-0.729300	-0.365333	0.137511	-0.690749	-0.236428	0.033228	-0.741610	-0.209949	0.040081	-0.670282	-0.185480	0.028571	-0.675810	
4	0.0200	-0.277124	1.376631	-0.525533	-0.219910	1.338943	-0.698547	-0.209015	1.340174	-0.350431	-0.158291	1.327495	-0.529898	-0.126336	0.922928	-0.441572	-0.131769	0.931416	-0.622844	-0.180769	0.983987	-0.397871	-0.177032	0.985296	-0.658020	-0.272226	0.970931	-0.466229	-0.273286	0.970469	-0.579982	-0.279196	0.979353	-0.523939	-0.226734	0.719312	-0.366228	-0.206415	0.663780	-0.356406	-0.145495	0.682998	-0.345384	-0.158151	0.742935	-0.353335	-0.258258	0.322039	-0.325335	-0.276811	0.285901	-0.326500	-0.227524	0.259621	-0.313742	-0.204337	0.295107	-0.314594	-0.353446	0.124089	-0.355374	-0.222216	0.031008	-0.296201	-0.189423	0.036870	-0.370710	-0.168391	0.029381	-0.361567	-0.199793	0.727171	-0.710650	-0.182511	0.668281	-0.715692	-0.119446	0.679444	-0.703380	-0.129329	0.738073	-0.697362	-0.264887	0.300812	-0.738420	-0.279662	0.258914	-0.736189	-0.229784	0.239641	-0.727521	-0.208806	0.274548	-0.728942	-0.367521	0.134003	-0.690849	-0.236372	0.032304	-0.742322	-0.209267	0.040230	-0.671085	-0.184480	0.028487	-0.675939	
5	0.0250	-0.277296	1.371404	-0.525322	-0.219665	1.333489	-0.698409	-0.208868	1.334811	-0.350000	-0.158590	1.322071	-0.529644	-0.127074	0.917936	-0.441244	-0.132323	0.926494	-0.622588	-0.181803	0.978669	-0.397576	-0.177738	0.980140	-0.657776	-0.273139	0.965490	-0.466062	-0.274118	0.965115	-0.579895	-0.279780	0.973944	-0.523866	-0.226656	0.713494	-0.366517	-0.205824	0.658141	-0.356683	-0.145134	0.677958	-0.345615	-0.158319	0.737775	-0.353584	-0.257619	0.318864	-0.325309	-0.276697	0.283006	-0.326435	-0.227886	0.256145	-0.313572	-0.204112	0.291223	-0.314667	-0.355601	0.121136	-0.354579	-0.222530	0.030493	-0.295578	-0.189939	0.036580	-0.370936	-0.168722	0.029303	-0.361841	-0.199458	0.721688	-0.710508	-0.181918	0.662846	-0.715451	-0.118917	0.674324	-0.703088	-0.129074	0.732911	-0.697163	-0.264928	0.297414	-0.738328	-0.280201	0.255709	-0.736031	-0.230608	0.235806	-0.727181	-0.209198	0.270448	-0.728620	-0.369784	0.130534	-0.691090	-0.236432	0.031423	-0.743020	-0.209054	0.040249	-0.671655	-0.183984	0.028428	-0.676038	
6	0.0300	-0.277467	1.366094	-0.525104	-0.219400	1.327863	-0.698293	-0.208689	1.329315	-0.349576	-0.158624	1.316624	-0.529417	-0.127834	0.912821	-0.440880	-0.132844	0.921466	-0.622339	-0.182842	0.973239	-0.397270	-0.178452	0.974867	-0.657549	-0.274119	0.959903	-0.465900	-0.274983	0.959551	-0.579806	-0.280499	0.968403	-0.523787	-0.226587	0.707455	-0.366896	-0.205196	0.652314	-0.357069	-0.144785	0.672754	-0.345799	-0.158544	0.732462	-0.353745	-0.256850	0.315635	-0.325263	-0.276461	0.280059	-0.326334	-0.228110	0.252605	-0.313350	-0.203750	0.287269	-0.314662	-0.357657	0.118164	-0.353712	-0.222721	0.030048	-0.294987	-0.190427	0.036274	-0.371202	-0.169074	0.029153	-0.362125	-0.199101	0.716065	-0.710342	-0.181310	0.657269	-0.715164	-0.118365	0.669052	-0.702813	-0.128782	0.727607	-0.697007	-0.265186	0.294024	-0.738229	-0.280933	0.252543	-0.735905	-0.231628	0.231998	-0.726930	-0.209801	0.266365	-0.728374	-0.372168	0.127136	-0.691429	-0.236710	0.030650	-0.743694	-0.209289	0.040178	-0.671962	-0.183944	0.028397	-0.676089	
7	0.0350	-0.277630	1.360672	-0.524872	-0.219121	1.322033	-0.698203	-0.208500	1.323671	-0.349173	-0.158493	1.311081	-0.529209	-0.128611	0.907591	-0.440481	-0.133336	0.916343	-0.622111	-0.183920	0.967670	-0.396943	-0.179176	0.969476	-0.657341	-0.275151	0.954139	-0.465760	-0.275886	0.953801	-0.579745	-0.281282	0.962685	-0.523708	-0.226534	0.701224	-0.367366	-0.204554	0.646321	-0.357549	-0.144465	0.667422	-0.345918	-0.158849	0.727011	-0.353816	-0.255957	0.312365	-0.325196	-0.276100	0.277080	-0.326195	-0.228206	0.249025	-0.313116	-0.203261	0.283272	-0.314642	-0.359595	0.115176	-0.352858	-0.222848	0.029652	-0.294381	-0.190907	0.035939	-0.371562	-0.169421	0.028995	-0.362476	-0.198717	0.710293	-0.710152	-0.180688	0.651544	-0.714843	-0.117789	0.663631	-0.702554	-0.128450	0.722156	-0.696887	-0.265666	0.290643	-0.738133	-0.281883	0.249412	-0.735817	-0.232872	0.228230	-0.726773	-0.210628	0.262312	-0.728204	-0.374652	0.123797	-0.691876	-0.237176	0.029952	-0.744321	-0.209920	0.040039	-0.672143	-0.184322	0.028394	-0.676160	
8	0.0400	-0.277775	1.355156	-0.524632	-0.218843	1.316019	-0.698140	-0.208325	1.317877	-0.348777	-0.158392	1.305361	-0.529009	-0.129405	0.902262	-0.440042	-0.133803	0.911136	-0.621908	-0.185044	0.961982	-0.396589	-0.179908	0.963981	-0.657152	-0.276241	0.948210	-0.465637	-0.276835	0.947882	-0.579709	-0.282148	0.956820	-0.523638	-0.226486	0.694838	-0.367924	-0.203891	0.640193	-0.358103	-0.144185	0.661990	-0.345944	-0.159215	0.721449	-0.353790	-0.254966	0.309043	-0.325112	-0.275638	0.274038	-0.326028	-0.228169	0.245396	-0.312906	-0.202665	0.279236	-0.314631	-0.361414	0.112164	-0.352065	-0.222901	0.029290	-0.293785	-0.191326	0.035590	-0.371940	-0.169718	0.028827	-0.362838	-0.198302	0.704415	-0.709951	-0.180044	0.645714	-0.714517	-0.117187	0.658095	-0.702306	-0.128075	0.716595	-0.696782	-0.266333	0.287290	-0.738054	-0.283013	0.246343	-0.735786	-0.234299	0.224516	-0.726712	-0.211665	0.258274	-0.728091	-0.377209	0.120500	-0.692399	-0.237804	0.029332	-0.744925	-0.210851	0.039847	-0.672222	-0.185024	0.028414	-0.676253	
9	0.0450	-0.277890	1.349567	-0.524397	-0.218571	1.309861	-0.698100	-0.208159	1.311991	-0.348397	-0.158221	1.299534	-0.528825	-0.130202	0.896854	-0.439567	-0.134253	0.905864	-0.621728	-0.186197	0.956186	-0.396205	-0.180655	0.958405	-0.656975	-0.277386	0.942138	-0.465534	-0.277837	0.941825	-0.579703	-0.283081	0.950814	-0.523569	-0.226433	0.688352	-0.368559	-0.203217	0.633971	-0.358706	-0.143951	0.656493	-0.345895	-0.159633	0.715802	-0.353667	-0.253917	0.305673	-0.324998	-0.275111	0.270908	-0.325859	-0.228013	0.241719	-0.312755	-0.201993	0.275157	-0.314662	-0.363109	0.109164	-0.351394	-0.222917	0.028940	-0.293212	-0.191676	0.035239	-0.372291	-0.169963	0.028658	-0.363171	-0.197857	0.698495	-0.709767	-0.179383	0.639847	-0.714215	-0.116574	0.652486	-0.702062	-0.127665	0.710969	-0.696675	-0.267129	0.283946	-0.737991	-0.284250	0.243327	-0.735812	-0.235844	0.220853	-0.726735	-0.212834	0.254270	-0.728030	-0.379787	0.117219	-0.692963	-0.238514	0.028792	-0.745485	-0.211946	0.039620	-0.672229	-0.185899	0.028448	-0.676353	
10	0.0500	-0.277975	1.343925	-0.524187	-0.218316	1.303599	-0.698083	-0.208017	1.306064	-0.348037	-0.158061	1.293586	-0.528656	-0.130989	0.891376	-0.439050	-0.134693	0.900547	-0.621579	-0.187388	0.950284	-0.395775	-0.181388	0.952777	-0.656844	-0.278577	0.935931	-0.465444	-0.278896	0.935722	-0.579767	-0.284024	0.944683	-0.523503	-0.226372	0.681817	-0.369234	-0.202551	0.627689	-0.359326	-0.143778	0.650949	-0.345755	-0.160090	0.710094	-0.353453	-0.252840	0.302251	-0.324868	-0.274539	0.267677	-0.325716	-0.227754	0.237953	-0.312709	-0.201282	0.271056	-0.314755	-0.364693	0.106189	-0.350916	-0.222956	0.028587	-0.292668	-0.191981	0.034898	-0.372604	-0.170172	0.028493	-0.363457	-0.197392	0.692593	-0.709621	-0.178728	0.634006	-0.713960	-0.115967	0.646858	-0.701825	-0.127227	0.705327	-0.696560	-0.267949	0.280589	-0.737952	-0.285512	0.240271	-0.735888	-0.237401	0.217204	-0.726801	-0.214026	0.250298	-0.728005	-0.382312	0.113937	-0.693518	-0.239218	0.028315	-0.745970	-0.213086	0.039355	-0.672175	-0.186831	0.028480	-0.676439	
